# xmcd
# Copyright (C) 1995-1998 Ti Kan
#
# Track frame offsets:
#       183
#       14113
#       29980
#       44048
#       61235
#       74695
#       98088
#
# Disc length: 1504 seconds
#
# Revision: 0
# Processed by: cddbd v1.5.2PL0 Copyright (c) Steve Scherf et al.
# Submitted via: CD-Import v1.0
#
DISCID=6d05de07
DTITLE=Diamond Dogs - Live
DYEAR=1992
DGENRE=
TTITLE0=Soon Be Dead
TTITLE1=Permanently High
TTITLE2=Every Child
TTITLE3=Lessons In Love
TTITLE4=Goin' Down South
TTITLE5=Slippin' Into Addiction
TTITLE6=20th Century Boy
EXTD=
EXTT0=
EXTT1=
EXTT2=
EXTT3=
EXTT4=
EXTT5=
EXTT6=
PLAYORDER=
